<svg width="40" height="40" viewBox="0 0 40 40" fill="none" xmlns="http://www.w3.org/2000/svg">
<g clip-path="url(#clip0_49_276)">
<path d="M37.5667 10.6998C37.3687 9.90885 36.9655 9.18412 36.3978 8.59885C35.83 8.01357 35.1179 7.58848 34.3333 7.3665C31.4667 6.6665 20 6.6665 20 6.6665C20 6.6665 8.53333 6.6665 5.66666 7.43317C4.88208 7.65515 4.16996 8.08024 3.60224 8.66551C3.03452 9.25079 2.63131 9.97552 2.43333 10.7665C1.90869 13.6758 1.65206 16.627 1.66666 19.5832C1.64796 22.5616 1.90461 25.5353 2.43333 28.4665C2.6516 29.2329 3.06384 29.9301 3.63024 30.4906C4.19663 31.0512 4.89803 31.4562 5.66666 31.6665C8.53333 32.4332 20 32.4332 20 32.4332C20 32.4332 31.4667 32.4332 34.3333 31.6665C35.1179 31.4445 35.83 31.0194 36.3978 30.4342C36.9655 29.8489 37.3687 29.1242 37.5667 28.3332C38.0873 25.4458 38.3439 22.5171 38.3333 19.5832C38.352 16.6048 38.0954 13.631 37.5667 10.6998Z" stroke="#1E1E1E" stroke-width="3.5" stroke-linecap="round" stroke-linejoin="round"/>
<path d="M16.25 25.0332L25.8333 19.5832L16.25 14.1332V25.0332Z" stroke="#1E1E1E" stroke-width="3.5" stroke-linecap="round" stroke-linejoin="round"/>
</g>
<defs>
<clipPath id="clip0_49_276">
<rect width="40" height="40" fill="white"/>
</clipPath>
</defs>
</svg>
